<svg width="602" height="249" viewBox="0 0 602 249" fill="none" xmlns="http://www.w3.org/2000/svg">
<path d="M312.886 45.3984H288.992V47.1905H312.886V45.3984Z" fill="#7B3B19" stroke="#7B3B19" stroke-width="0.597349"/>
<path d="M211.696 27.7764C223.42 28.1672 239.971 44.0045 246.044 52.2678C237.084 43.3075 226.331 38.2301 222.15 38.5287C220.66 38.6351 219.462 37.9314 220.059 37.0354C220.589 36.2401 222.845 35.3428 224.238 35.5419C223.044 34.7455 219.101 32.9733 212.889 32.2565C205.123 31.3605 202.734 36.438 202.435 38.5287C202.196 40.2013 203.632 40.6194 204.526 40.0221C204.825 39.6238 205.527 38.5287 207.216 38.5287C211.099 38.5287 212.291 46.2942 206.617 47.1902C196.843 48.7335 196.364 40.4203 197.36 35.8406C197.944 33.1525 202.736 27.4778 211.696 27.7764Z" fill="#7B3B19"/>
<path d="M231.708 24.1924C236.247 23.4756 240.966 38.2301 242.758 45.6969C239.652 39.2455 232.902 30.0168 226.033 26.5819C223.643 25.3871 221.851 25.9845 220.955 26.5819C219.761 26.8806 219.462 25.6461 220.059 25.0886C223.643 21.7434 229.119 24.9889 231.409 26.8805C230.692 25.4468 230.811 24.4912 231.708 24.1924Z" fill="#7B3B19"/>
<path d="M248.433 12.8429C243.177 17.8606 244.252 36.7369 246.044 48.3852C245.148 46.5932 239.473 24.491 235.889 20.0111C232.305 14.3363 225.734 17.3231 225.734 15.8297C225.734 12.5443 232.206 13.4403 234.694 15.2323C237.084 10.4535 240.27 18.02 241.564 22.4005C242.997 15.9492 244.105 7.85454 246.044 7.46676C249.628 6.74994 250.524 11.0508 248.433 12.8429Z" fill="#7B3B19"/>
<path d="M247.836 30.166C247.119 33.989 247.239 40.9183 248.433 43.009C248.433 37.7523 249.628 29.27 252.316 25.6859C254.108 23.2965 252.674 21.9226 251.719 22.4005C250.524 22.9979 248.732 25.3872 247.836 30.166Z" fill="#7B3B19"/>
<path d="M223.046 67.799C224.148 65.2284 221.652 64.1153 220.358 63.9162C220.836 59.1374 224.141 57.1463 225.734 56.748C224.241 58.8388 226.472 59.8403 227.526 59.1374C233.798 54.956 241.365 55.3542 244.849 56.748C242.699 56.748 240.369 56.9472 239.473 57.0467C239.174 57.1463 237.382 57.303 237.382 58.5401C237.382 59.4361 238.179 59.8343 238.876 60.0335C238.278 63.0202 233.201 64.8122 233.5 65.4096C234.993 67.5003 241.265 66.0069 243.057 62.4229C242.161 64.2149 242.758 67.2016 244.252 66.0069C245.447 65.0512 248.732 63.8167 250.225 63.3189C260.082 61.8255 264.562 66.0069 263.666 66.0069C262.77 66.0069 262.172 67.5003 263.666 67.799C264.86 68.0379 271.133 67.8986 274.119 67.799C289.65 67.0822 295.723 57.1463 296.819 52.2679C296.819 50.7745 295.91 49.0234 293.533 48.6838C291.442 48.3852 290.347 49.5798 290.248 49.8785C286.365 59.1374 278.201 60.6308 274.119 60.0335C261.694 58.5998 258.389 48.8829 258.29 44.2037C257.334 33.9293 264.064 32.3563 267.548 32.8541C268.146 31.3607 268.146 28.6129 263.367 29.5687C258.588 30.5244 256.697 34.7457 256.199 36.4382C256.199 35.8408 255.937 34.6461 254.705 34.6461C253.511 34.6461 252.615 35.2435 252.017 37.9315C251.42 40.6196 252.316 44.5024 252.615 45.6969C252.854 46.6526 252.515 46.6926 252.316 46.5931C252.216 45.498 251.373 43.3349 249.329 44.5024C247.239 45.6969 247.239 51.6706 251.42 54.6573C254.463 56.8311 264.562 60.9295 269.639 63.0202C258.588 61.2282 259.484 60.9295 251.42 57.0467C243.356 53.1639 239.542 50.5501 234.694 50.1772C230.811 49.8785 230.115 52.2679 230.214 53.7613C223.643 53.7613 218.708 56.3748 216.774 60.6308C215.28 63.9162 216.512 67.799 217.968 68.695C219.263 69.4915 222.15 69.8897 223.046 67.799Z" fill="#7B3B19"/>
<path d="M281.586 36.1395C286.365 36.1395 289.65 40.6196 290.248 43.6064H296.819C296.819 35.8408 288.156 28.9888 282.781 28.6726C277.703 28.374 272.925 29.8673 270.535 34.3474C268.317 38.5056 269.141 43.8055 269.938 45.9958C270.734 47.9869 273.522 51.9692 278.301 51.9692C283.08 51.9692 285.071 48.3852 285.469 46.5931C285.768 45.0002 285.63 41.8749 283.08 40.9183C280.69 40.0223 278.301 41.217 277.106 42.113C276.15 42.8298 275.712 42.4117 275.613 42.113C274.896 38.2899 278.898 36.1395 281.586 36.1395Z" fill="#7B3B19"/>
<path d="M211.696 27.7764C223.42 28.1672 239.971 44.0045 246.044 52.2678C237.084 43.3075 226.331 38.2301 222.15 38.5287C220.66 38.6351 219.462 37.9314 220.059 37.0354C220.589 36.2401 222.845 35.3428 224.238 35.5419C223.044 34.7455 219.101 32.9733 212.889 32.2565C205.123 31.3605 202.734 36.438 202.435 38.5287C202.196 40.2013 203.632 40.6194 204.526 40.0221C204.825 39.6238 205.527 38.5287 207.216 38.5287C211.099 38.5287 212.291 46.2942 206.617 47.1902C196.843 48.7335 196.364 40.4203 197.36 35.8406C197.944 33.1525 202.736 27.4778 211.696 27.7764Z" stroke="#7B3B19" stroke-width="0.597349"/>
<path d="M231.708 24.1924C236.247 23.4756 240.966 38.2301 242.758 45.6969C239.652 39.2455 232.902 30.0168 226.033 26.5819C223.643 25.3871 221.851 25.9845 220.955 26.5819C219.761 26.8806 219.462 25.6461 220.059 25.0886C223.643 21.7434 229.119 24.9889 231.409 26.8805C230.692 25.4468 230.811 24.4912 231.708 24.1924Z" stroke="#7B3B19" stroke-width="0.597349"/>
<path d="M248.433 12.8429C243.177 17.8606 244.252 36.7369 246.044 48.3852C245.148 46.5932 239.473 24.491 235.889 20.0111C232.305 14.3363 225.734 17.3231 225.734 15.8297C225.734 12.5443 232.206 13.4403 234.694 15.2323C237.084 10.4535 240.27 18.02 241.564 22.4005C242.997 15.9492 244.105 7.85454 246.044 7.46676C249.628 6.74994 250.524 11.0508 248.433 12.8429Z" stroke="#7B3B19" stroke-width="0.597349"/>
<path d="M247.836 30.166C247.119 33.989 247.239 40.9183 248.433 43.009C248.433 37.7523 249.628 29.27 252.316 25.6859C254.108 23.2965 252.674 21.9226 251.719 22.4005C250.524 22.9979 248.732 25.3872 247.836 30.166Z" stroke="#7B3B19" stroke-width="0.597349"/>
<path d="M223.046 67.799C224.148 65.2284 221.652 64.1153 220.358 63.9162C220.836 59.1374 224.141 57.1463 225.734 56.748C224.241 58.8388 226.472 59.8403 227.526 59.1374C233.798 54.956 241.365 55.3542 244.849 56.748C242.699 56.748 240.369 56.9472 239.473 57.0467C239.174 57.1463 237.382 57.303 237.382 58.5401C237.382 59.4361 238.179 59.8343 238.876 60.0335C238.278 63.0202 233.201 64.8122 233.5 65.4096C234.993 67.5003 241.265 66.0069 243.057 62.4229C242.161 64.2149 242.758 67.2016 244.252 66.0069C245.447 65.0512 248.732 63.8167 250.225 63.3189C260.082 61.8255 264.562 66.0069 263.666 66.0069C262.77 66.0069 262.172 67.5003 263.666 67.799C264.86 68.0379 271.133 67.8986 274.119 67.799C289.65 67.0822 295.723 57.1463 296.819 52.2679C296.819 50.7745 295.91 49.0234 293.533 48.6838C291.442 48.3852 290.347 49.5798 290.248 49.8785C286.365 59.1374 278.201 60.6308 274.119 60.0335C261.694 58.5998 258.389 48.8829 258.29 44.2037C257.334 33.9293 264.064 32.3563 267.548 32.8541C268.146 31.3607 268.146 28.6129 263.367 29.5687C258.588 30.5244 256.697 34.7457 256.199 36.4382C256.199 35.8408 255.937 34.6461 254.705 34.6461C253.511 34.6461 252.615 35.2435 252.017 37.9315C251.42 40.6196 252.316 44.5024 252.615 45.6969C252.854 46.6526 252.515 46.6926 252.316 46.5931C252.216 45.498 251.373 43.3349 249.329 44.5024C247.239 45.6969 247.239 51.6706 251.42 54.6573C254.463 56.8311 264.562 60.9295 269.639 63.0202C258.588 61.2282 259.484 60.9295 251.42 57.0467C243.356 53.1639 239.542 50.5501 234.694 50.1772C230.811 49.8785 230.115 52.2679 230.214 53.7613C223.643 53.7613 218.708 56.3748 216.774 60.6308C215.28 63.9162 216.512 67.799 217.968 68.695C219.263 69.4915 222.15 69.8897 223.046 67.799Z" stroke="#7B3B19" stroke-width="0.597349"/>
<path d="M281.586 36.1395C286.365 36.1395 289.65 40.6196 290.248 43.6064H296.819C296.819 35.8408 288.156 28.9888 282.781 28.6726C277.703 28.374 272.925 29.8673 270.535 34.3474C268.317 38.5056 269.141 43.8055 269.938 45.9958C270.734 47.9869 273.522 51.9692 278.301 51.9692C283.08 51.9692 285.071 48.3852 285.469 46.5931C285.768 45.0002 285.63 41.8749 283.08 40.9183C280.69 40.0223 278.301 41.217 277.106 42.113C276.15 42.8298 275.712 42.4117 275.613 42.113C274.896 38.2899 278.898 36.1395 281.586 36.1395Z" stroke="#7B3B19" stroke-width="0.597349"/>
<path d="M390.304 27.5577C378.58 27.9484 362.029 43.7857 355.956 52.049C364.916 43.0888 375.669 38.0113 379.85 38.3099C381.34 38.4163 382.538 37.7127 381.941 36.8166C381.411 36.0214 379.155 35.1241 377.762 35.3232C378.956 34.5267 382.899 32.7546 389.111 32.0378C396.877 31.1418 399.266 36.2192 399.565 38.3099C399.804 39.9825 398.368 40.4007 397.474 39.8033C397.175 39.4051 396.473 38.3099 394.784 38.3099C390.901 38.3099 389.709 46.0755 395.383 46.9715C405.157 48.5147 405.636 40.2016 404.64 35.6219C404.056 32.9338 399.264 27.259 390.304 27.5577Z" fill="#7B3B19"/>
<path d="M370.292 23.9736C365.753 23.2568 361.034 38.0113 359.242 45.4782C362.348 39.0267 369.098 29.7981 375.967 26.3631C378.357 25.1684 380.149 25.7658 381.045 26.3631C382.239 26.6619 382.538 25.4273 381.941 24.8698C378.357 21.5246 372.881 24.7701 370.591 26.6617C371.308 25.2281 371.189 24.2725 370.292 23.9736Z" fill="#7B3B19"/>
<path d="M353.567 12.6241C358.823 17.6419 357.748 36.5182 355.956 48.1665C356.852 46.3744 362.527 24.2723 366.111 19.7924C369.695 14.1176 376.266 17.1043 376.266 15.6109C376.266 12.3255 369.794 13.2215 367.306 15.0136C364.916 10.2348 361.73 17.8012 360.436 22.1818C359.003 15.7304 357.895 7.63579 355.956 7.24801C352.372 6.53119 351.476 10.8321 353.567 12.6241Z" fill="#7B3B19"/>
<path d="M354.164 29.9473C354.881 33.7703 354.761 40.6995 353.567 42.7903C353.567 37.5336 352.372 29.0512 349.684 25.4671C347.892 23.0777 349.326 21.7038 350.281 22.1818C351.476 22.7792 353.268 25.1685 354.164 29.9473Z" fill="#7B3B19"/>
<path d="M378.954 67.5802C377.852 65.0097 380.348 63.8966 381.642 63.6975C381.164 58.9187 377.859 56.9275 376.266 56.5293C377.759 58.62 375.528 59.6216 374.474 58.9187C368.202 54.7372 360.635 55.1355 357.151 56.5293C359.301 56.5293 361.631 56.7284 362.527 56.828C362.826 56.9275 364.618 57.0843 364.618 58.3213C364.618 59.2174 363.821 59.6156 363.124 59.8147C363.722 62.8015 368.799 64.5935 368.5 65.1908C367.007 67.2816 360.735 65.7882 358.943 62.2041C359.839 63.9962 359.242 66.9829 357.748 65.7882C356.553 64.8324 353.268 63.5979 351.775 63.1001C341.918 61.6068 337.438 65.7882 338.334 65.7882C339.23 65.7882 339.828 67.2816 338.334 67.5802C337.14 67.8192 330.867 67.6798 327.881 67.5802C312.35 66.8634 306.277 56.9275 305.181 52.0492C305.181 50.5558 306.09 48.8047 308.467 48.4651C310.558 48.1664 311.653 49.3611 311.752 49.6598C315.635 58.9187 323.799 60.4121 327.881 59.8147C340.306 58.3811 343.611 48.6642 343.71 43.985C344.666 33.7106 337.936 32.1375 334.452 32.6353C333.854 31.142 333.854 28.3941 338.633 29.3499C343.412 30.3057 345.303 34.5269 345.801 36.2194C345.801 35.6221 346.063 34.4274 347.295 34.4274C348.489 34.4274 349.385 35.0247 349.983 37.7128C350.58 40.4009 349.684 44.2836 349.385 45.4782C349.146 46.4338 349.485 46.4738 349.684 46.3744C349.784 45.2792 350.627 43.1162 352.671 44.2836C354.761 45.4782 354.761 51.4518 350.58 54.4386C347.537 56.6124 337.438 60.7107 332.361 62.8015C343.412 61.0094 342.516 60.7107 350.58 56.828C358.644 52.9452 362.458 50.3314 367.306 49.9584C371.189 49.6598 371.885 52.0492 371.786 53.5425C378.357 53.5425 383.292 56.1561 385.226 60.4121C386.72 63.6975 385.488 67.5802 384.032 68.4763C382.737 69.2727 379.85 69.671 378.954 67.5802Z" fill="#7B3B19"/>
<path d="M320.414 35.9207C315.635 35.9207 312.35 40.4009 311.752 43.3876H305.181C305.181 35.6221 313.844 28.7701 319.219 28.4539C324.297 28.1552 329.075 29.6486 331.465 34.1287C333.683 38.2869 332.859 43.5867 332.062 45.777C331.266 47.7682 328.478 51.7505 323.699 51.7505C318.92 51.7505 316.929 48.1664 316.531 46.3744C316.232 44.7814 316.37 41.6561 318.92 40.6995C321.31 39.8035 323.699 40.9982 324.894 41.8942C325.85 42.6111 326.288 42.1929 326.387 41.8942C327.104 38.0712 323.102 35.9207 320.414 35.9207Z" fill="#7B3B19"/>
<path d="M390.304 27.5577C378.58 27.9484 362.029 43.7857 355.956 52.049C364.916 43.0888 375.669 38.0113 379.85 38.3099C381.34 38.4163 382.538 37.7127 381.941 36.8166C381.411 36.0214 379.155 35.1241 377.762 35.3232C378.956 34.5267 382.899 32.7546 389.111 32.0378C396.877 31.1418 399.266 36.2192 399.565 38.3099C399.804 39.9825 398.368 40.4007 397.474 39.8033C397.175 39.4051 396.473 38.3099 394.784 38.3099C390.901 38.3099 389.709 46.0755 395.383 46.9715C405.157 48.5147 405.636 40.2016 404.64 35.6219C404.056 32.9338 399.264 27.259 390.304 27.5577Z" stroke="#7B3B19" stroke-width="0.597349"/>
<path d="M370.292 23.9736C365.753 23.2568 361.034 38.0113 359.242 45.4782C362.348 39.0267 369.098 29.7981 375.967 26.3631C378.357 25.1684 380.149 25.7658 381.045 26.3631C382.239 26.6619 382.538 25.4273 381.941 24.8698C378.357 21.5246 372.881 24.7701 370.591 26.6617C371.308 25.2281 371.189 24.2725 370.292 23.9736Z" stroke="#7B3B19" stroke-width="0.597349"/>
<path d="M353.567 12.6241C358.823 17.6419 357.748 36.5182 355.956 48.1665C356.852 46.3744 362.527 24.2723 366.111 19.7924C369.695 14.1176 376.266 17.1043 376.266 15.6109C376.266 12.3255 369.794 13.2215 367.306 15.0136C364.916 10.2348 361.73 17.8012 360.436 22.1818C359.003 15.7304 357.895 7.63579 355.956 7.24801C352.372 6.53119 351.476 10.8321 353.567 12.6241Z" stroke="#7B3B19" stroke-width="0.597349"/>
<path d="M354.164 29.9473C354.881 33.7703 354.761 40.6995 353.567 42.7903C353.567 37.5336 352.372 29.0512 349.684 25.4671C347.892 23.0777 349.326 21.7038 350.281 22.1818C351.476 22.7792 353.268 25.1685 354.164 29.9473Z" stroke="#7B3B19" stroke-width="0.597349"/>
<path d="M378.954 67.5802C377.852 65.0097 380.348 63.8966 381.642 63.6975C381.164 58.9187 377.859 56.9275 376.266 56.5293C377.759 58.62 375.528 59.6216 374.474 58.9187C368.202 54.7372 360.635 55.1355 357.151 56.5293C359.301 56.5293 361.631 56.7284 362.527 56.828C362.826 56.9275 364.618 57.0843 364.618 58.3213C364.618 59.2174 363.821 59.6156 363.124 59.8147C363.722 62.8015 368.799 64.5935 368.5 65.1908C367.007 67.2816 360.735 65.7882 358.943 62.2041C359.839 63.9962 359.242 66.9829 357.748 65.7882C356.553 64.8324 353.268 63.5979 351.775 63.1001C341.918 61.6068 337.438 65.7882 338.334 65.7882C339.23 65.7882 339.828 67.2816 338.334 67.5802C337.14 67.8192 330.867 67.6798 327.881 67.5802C312.35 66.8634 306.277 56.9275 305.181 52.0492C305.181 50.5558 306.09 48.8047 308.467 48.4651C310.558 48.1664 311.653 49.3611 311.752 49.6598C315.635 58.9187 323.799 60.4121 327.881 59.8147C340.306 58.3811 343.611 48.6642 343.71 43.985C344.666 33.7106 337.936 32.1375 334.452 32.6353C333.854 31.142 333.854 28.3941 338.633 29.3499C343.412 30.3057 345.303 34.5269 345.801 36.2194C345.801 35.6221 346.063 34.4274 347.295 34.4274C348.489 34.4274 349.385 35.0247 349.983 37.7128C350.58 40.4009 349.684 44.2836 349.385 45.4782C349.146 46.4338 349.485 46.4738 349.684 46.3744C349.784 45.2792 350.627 43.1162 352.671 44.2836C354.761 45.4782 354.761 51.4518 350.58 54.4386C347.537 56.6124 337.438 60.7107 332.361 62.8015C343.412 61.0094 342.516 60.7107 350.58 56.828C358.644 52.9452 362.458 50.3314 367.306 49.9584C371.189 49.6598 371.885 52.0492 371.786 53.5425C378.357 53.5425 383.292 56.1561 385.226 60.4121C386.72 63.6975 385.488 67.5802 384.032 68.4763C382.737 69.2727 379.85 69.671 378.954 67.5802Z" stroke="#7B3B19" stroke-width="0.597349"/>
<path d="M320.414 35.9207C315.635 35.9207 312.35 40.4009 311.752 43.3876H305.181C305.181 35.6221 313.844 28.7701 319.219 28.4539C324.297 28.1552 329.075 29.6486 331.465 34.1287C333.683 38.2869 332.859 43.5867 332.062 45.777C331.266 47.7682 328.478 51.7505 323.699 51.7505C318.92 51.7505 316.929 48.1664 316.531 46.3744C316.232 44.7814 316.37 41.6561 318.92 40.6995C321.31 39.8035 323.699 40.9982 324.894 41.8942C325.85 42.6111 326.288 42.1929 326.387 41.8942C327.104 38.0712 323.102 35.9207 320.414 35.9207Z" stroke="#7B3B19" stroke-width="0.597349"/>
<path d="M303.09 36.4383H298.61C297.715 34.6462 294.131 29.8674 290.547 27.478C286.066 23.8939 280.989 22.7988 277.704 22.6992C273.821 22.6992 270.336 23.6948 268.146 24.7899C269.938 18.8164 276.808 19.1151 281.885 20.3098C281.885 19.1151 278.502 18.1327 280.392 17.3231C282.482 16.427 285.668 18.1195 287.261 19.1151C288.456 18.5178 286.664 16.7257 286.962 16.7257C290.547 15.8297 294.131 21.5045 294.728 22.1019C295.206 22.5798 296.321 26.0842 296.818 27.7767C297.216 28.374 298.014 28.6727 298.61 27.7767C299.448 26.5188 297.118 20.6085 295.325 17.6217C293.831 15.1325 292.637 12.8429 293.831 11.3495C295.107 9.75546 297.017 11.8473 297.416 12.5443C298.013 10.7522 299.506 9.8562 301.298 9.8562C302.732 9.8562 303.887 11.6482 304.285 12.5443C304.882 11.9469 306.758 10.6086 307.869 11.3495C308.765 11.9469 308.646 14.3363 306.973 16.7257C304.882 19.7124 302.195 25.686 302.494 27.7767C302.62 28.6637 303.987 28.6727 304.286 27.7767C304.385 27.478 305.779 24.1926 307.272 22.1019C309.99 18.2975 313.246 16.427 314.739 16.7257C315.934 16.9647 313.545 18.5178 314.44 19.1151C318.024 16.7258 321.694 16.7823 322.505 17.3231C324.297 18.5178 319.518 19.5133 319.219 20.3098C328.18 17.323 333.258 22.9979 333.556 25.3873C332.759 24.4913 326.686 22.4005 320.414 23.5952C313.372 24.9365 305.878 32.2568 303.09 36.4383Z" fill="#7B3B19" stroke="#7B3B19" stroke-width="0.597349"/>
<circle cx="301" cy="40.6197" r="1.79205" fill="#7B3B19"/>
<circle cx="301" cy="7.16827" r="1.79205" fill="#7B3B19"/>
<circle cx="301" cy="2.3894" r="2.3894" fill="#7B3B19"/>
<circle cx="255.004" cy="20.3099" r="1.79205" fill="#7B3B19"/>
<circle cx="346.996" cy="20.3099" r="1.79205" fill="#7B3B19"/>
<path d="M0 87.3381H602" stroke="#7B3B19" stroke-width="1.88912"/>
<path d="M244.43 114.908L242.06 114.548V113.048H250.22V114.548L247.64 114.908V122.978H258.2V114.908L255.77 114.548V113.048H263.81V114.548L261.44 114.908V133.568L263.81 133.868V135.338H255.74V133.868L258.2 133.568V124.838H247.64V133.568L250.25 133.868V135.338H242V133.868L244.43 133.568V114.908ZM270.234 115.688C269.594 115.688 269.114 115.508 268.794 115.148C268.474 114.788 268.314 114.328 268.314 113.768C268.314 113.128 268.504 112.598 268.884 112.178C269.284 111.758 269.824 111.548 270.504 111.548C271.184 111.548 271.684 111.728 272.004 112.088C272.324 112.448 272.484 112.908 272.484 113.468C272.484 114.148 272.284 114.688 271.884 115.088C271.504 115.488 270.964 115.688 270.264 115.688H270.234ZM269.034 120.998L266.754 120.458V118.868L271.404 118.298H271.464L272.154 118.838V133.628L274.554 133.868V135.338H266.604V133.868L269.034 133.598V120.998ZM279.474 132.938C279.674 133.238 280.094 133.508 280.734 133.748C281.394 133.988 282.084 134.108 282.804 134.108C283.944 134.108 284.784 133.888 285.324 133.448C285.864 133.008 286.134 132.398 286.134 131.618C286.134 131.078 285.964 130.608 285.624 130.208C285.284 129.808 284.804 129.458 284.184 129.158C283.584 128.838 282.714 128.458 281.574 128.018C280.034 127.438 278.904 126.748 278.184 125.948C277.484 125.128 277.134 124.058 277.134 122.738C277.134 121.858 277.394 121.088 277.914 120.428C278.454 119.768 279.184 119.258 280.104 118.898C281.044 118.518 282.084 118.328 283.224 118.328C284.144 118.328 284.944 118.398 285.624 118.538C286.324 118.678 286.884 118.818 287.304 118.958C287.724 119.098 288.004 119.188 288.144 119.228V122.948H286.314L285.714 120.728C285.594 120.488 285.274 120.288 284.754 120.128C284.234 119.948 283.654 119.858 283.014 119.858C282.114 119.858 281.384 120.058 280.824 120.458C280.284 120.858 280.014 121.398 280.014 122.078C280.014 122.678 280.154 123.178 280.434 123.578C280.734 123.958 281.104 124.268 281.544 124.508C281.984 124.748 282.584 125.028 283.344 125.348L283.944 125.588C285.064 126.028 285.974 126.448 286.674 126.848C287.374 127.248 287.954 127.778 288.414 128.438C288.894 129.078 289.134 129.868 289.134 130.808C289.134 132.288 288.554 133.468 287.394 134.348C286.254 135.228 284.684 135.668 282.684 135.668C281.704 135.668 280.674 135.538 279.594 135.278C278.534 134.998 277.664 134.718 276.984 134.438V130.598H278.934L279.474 132.938ZM296.96 135.638C295.82 135.638 294.97 135.378 294.41 134.858C293.85 134.338 293.57 133.448 293.57 132.188V120.668H291.41V119.318C291.51 119.298 291.79 119.228 292.25 119.108C292.71 118.988 293.02 118.878 293.18 118.778C293.5 118.598 293.75 118.238 293.93 117.698C294.09 117.318 294.28 116.708 294.5 115.868C294.72 115.028 294.85 114.528 294.89 114.368H296.66L296.72 118.688H301.73V120.668H296.72V129.878C296.72 131.018 296.75 131.818 296.81 132.278C296.89 132.738 297.04 133.038 297.26 133.178C297.5 133.318 297.9 133.388 298.46 133.388C299 133.388 299.59 133.318 300.23 133.178C300.89 133.038 301.4 132.888 301.76 132.728L302.21 134.078C301.73 134.438 300.95 134.788 299.87 135.128C298.81 135.468 297.84 135.638 296.96 135.638ZM304.047 126.968C304.047 125.168 304.417 123.608 305.157 122.288C305.897 120.968 306.867 119.968 308.067 119.288C309.287 118.588 310.587 118.238 311.967 118.238C314.487 118.238 316.377 119.038 317.637 120.638C318.917 122.238 319.557 124.338 319.557 126.938C319.557 128.758 319.187 130.328 318.447 131.648C317.707 132.968 316.727 133.968 315.507 134.648C314.307 135.328 313.017 135.668 311.637 135.668C309.117 135.668 307.217 134.868 305.937 133.268C304.677 131.668 304.047 129.568 304.047 126.968ZM311.817 133.958C313.197 133.958 314.257 133.388 314.997 132.248C315.737 131.108 316.107 129.418 316.107 127.178C316.107 124.958 315.767 123.198 315.087 121.898C314.407 120.598 313.317 119.948 311.817 119.948C310.437 119.948 309.367 120.518 308.607 121.658C307.867 122.798 307.497 124.488 307.497 126.728C307.497 128.948 307.847 130.708 308.547 132.008C309.247 133.308 310.337 133.958 311.817 133.958ZM322.359 133.868L324.609 133.688V120.998L322.449 120.458V118.838L326.589 118.298H326.649L327.309 118.838V119.378L327.219 121.718H327.309C327.509 121.378 327.869 120.938 328.389 120.398C328.909 119.858 329.579 119.368 330.399 118.928C331.219 118.468 332.109 118.238 333.069 118.238C333.469 118.238 333.799 118.288 334.059 118.388V121.748C333.919 121.648 333.689 121.558 333.369 121.478C333.069 121.378 332.729 121.328 332.349 121.328C330.689 121.328 329.149 121.838 327.729 122.858V133.658L331.539 133.898V135.338H322.359V133.868ZM339.579 115.688C338.939 115.688 338.459 115.508 338.139 115.148C337.819 114.788 337.659 114.328 337.659 113.768C337.659 113.128 337.849 112.598 338.229 112.178C338.629 111.758 339.169 111.548 339.849 111.548C340.529 111.548 341.029 111.728 341.349 112.088C341.669 112.448 341.829 112.908 341.829 113.468C341.829 114.148 341.629 114.688 341.229 115.088C340.849 115.488 340.309 115.688 339.609 115.688H339.579ZM338.379 120.998L336.099 120.458V118.868L340.749 118.298H340.809L341.499 118.838V133.628L343.899 133.868V135.338H335.949V133.868L338.379 133.598V120.998ZM346.03 130.838C346.03 128.958 346.97 127.578 348.85 126.698C350.73 125.798 353.11 125.318 355.99 125.258V124.418C355.99 123.478 355.89 122.738 355.69 122.198C355.49 121.658 355.14 121.268 354.64 121.028C354.16 120.768 353.47 120.638 352.57 120.638C351.55 120.638 350.63 120.788 349.81 121.088C349.01 121.368 348.21 121.718 347.41 122.138L346.66 120.578C346.92 120.358 347.4 120.068 348.1 119.708C348.8 119.348 349.61 119.028 350.53 118.748C351.45 118.468 352.37 118.328 353.29 118.328C354.71 118.328 355.83 118.528 356.65 118.928C357.49 119.308 358.09 119.928 358.45 120.788C358.81 121.648 358.99 122.798 358.99 124.238V133.868H360.76V135.188C360.36 135.288 359.85 135.388 359.23 135.488C358.63 135.588 358.1 135.638 357.64 135.638C357.08 135.638 356.7 135.548 356.5 135.368C356.3 135.208 356.2 134.838 356.2 134.258V133.268C355.6 133.868 354.86 134.418 353.98 134.918C353.12 135.418 352.14 135.668 351.04 135.668C349.6 135.668 348.4 135.258 347.44 134.438C346.5 133.598 346.03 132.398 346.03 130.838ZM352.33 133.628C352.85 133.628 353.45 133.468 354.13 133.148C354.81 132.828 355.43 132.448 355.99 132.008V126.848C353.81 126.848 352.16 127.188 351.04 127.868C349.94 128.528 349.39 129.398 349.39 130.478C349.39 131.558 349.65 132.358 350.17 132.878C350.71 133.378 351.43 133.628 352.33 133.628Z" fill="#333333"/>
<path d="M0 161.338H602" stroke="#7B3B19" stroke-width="1.88912"/>
<path d="M312.886 203.278H288.992V201.486H312.886V203.278Z" fill="#7B3B19" stroke="#7B3B19" stroke-width="0.597349"/>
<path d="M211.696 220.9C223.42 220.509 239.971 204.672 246.044 196.408C237.084 205.368 226.331 210.446 222.15 210.147C220.66 210.041 219.462 210.745 220.059 211.641C220.589 212.436 222.845 213.333 224.238 213.134C223.044 213.931 219.101 215.703 212.889 216.42C205.123 217.316 202.734 212.238 202.435 210.147C202.196 208.475 203.632 208.057 204.526 208.654C204.825 209.052 205.527 210.147 207.216 210.147C211.099 210.147 212.291 202.382 206.617 201.486C196.843 199.943 196.364 208.256 197.36 212.835C197.944 215.523 202.736 221.198 211.696 220.9Z" fill="#7B3B19"/>
<path d="M231.708 224.484C236.247 225.2 240.966 210.446 242.758 202.979C239.652 209.431 232.902 218.659 226.033 222.094C223.643 223.289 221.851 222.692 220.955 222.094C219.761 221.795 219.462 223.03 220.059 223.587C223.643 226.933 229.119 223.687 231.409 221.796C230.692 223.229 230.811 224.185 231.708 224.484Z" fill="#7B3B19"/>
<path d="M248.433 235.833C243.177 230.815 244.252 211.939 246.044 200.291C245.148 202.083 239.473 224.185 235.889 228.665C232.305 234.34 225.734 231.353 225.734 232.846C225.734 236.132 232.206 235.236 234.694 233.444C237.084 238.222 240.27 230.656 241.564 226.275C242.997 232.727 244.105 240.821 246.044 241.209C249.628 241.926 250.524 237.625 248.433 235.833Z" fill="#7B3B19"/>
<path d="M247.836 218.51C247.119 214.687 247.239 207.758 248.433 205.667C248.433 210.924 249.628 219.406 252.316 222.99C254.108 225.38 252.674 226.753 251.719 226.275C250.524 225.678 248.732 223.289 247.836 218.51Z" fill="#7B3B19"/>
<path d="M223.046 180.877C224.148 183.448 221.652 184.561 220.358 184.76C220.836 189.539 224.141 191.53 225.734 191.928C224.241 189.837 226.472 188.836 227.526 189.539C233.798 193.72 241.365 193.322 244.849 191.928C242.699 191.928 240.369 191.729 239.473 191.629C239.174 191.53 237.382 191.373 237.382 190.136C237.382 189.24 238.179 188.842 238.876 188.643C238.278 185.656 233.201 183.864 233.5 183.266C234.993 181.176 241.265 182.669 243.057 186.253C242.161 184.461 242.758 181.474 244.252 182.669C245.447 183.625 248.732 184.859 250.225 185.357C260.082 186.851 264.562 182.669 263.666 182.669C262.77 182.669 262.172 181.176 263.666 180.877C264.86 180.638 271.133 180.777 274.119 180.877C289.65 181.594 295.723 191.53 296.819 196.408C296.819 197.901 295.91 199.653 293.533 199.992C291.442 200.291 290.347 199.096 290.248 198.798C286.365 189.539 278.201 188.045 274.119 188.643C261.694 190.076 258.389 199.793 258.29 204.472C257.334 214.747 264.064 216.32 267.548 215.822C268.146 217.315 268.146 220.063 263.367 219.107C258.588 218.152 256.697 213.93 256.199 212.238C256.199 212.835 255.937 214.03 254.705 214.03C253.511 214.03 252.615 213.433 252.017 210.744C251.42 208.056 252.316 204.174 252.615 202.979C252.854 202.023 252.515 201.983 252.316 202.083C252.216 203.178 251.373 205.341 249.329 204.174C247.239 202.979 247.239 197.005 251.42 194.019C254.463 191.845 264.562 187.747 269.639 185.656C258.588 187.448 259.484 187.747 251.42 191.629C243.356 195.512 239.542 198.126 234.694 198.499C230.811 198.798 230.115 196.408 230.214 194.915C223.643 194.915 218.708 192.301 216.774 188.045C215.28 184.76 216.512 180.877 217.968 179.981C219.263 179.185 222.15 178.786 223.046 180.877Z" fill="#7B3B19"/>
<path d="M281.586 212.537C286.365 212.537 289.65 208.056 290.248 205.07H296.819C296.819 212.835 288.156 219.687 282.781 220.003C277.703 220.302 272.925 218.809 270.535 214.329C268.317 210.17 269.141 204.871 269.938 202.68C270.734 200.689 273.522 196.707 278.301 196.707C283.08 196.707 285.071 200.291 285.469 202.083C285.768 203.676 285.63 206.801 283.08 207.758C280.69 208.654 278.301 207.459 277.106 206.563C276.15 205.846 275.712 206.264 275.613 206.563C274.896 210.386 278.898 212.537 281.586 212.537Z" fill="#7B3B19"/>
<path d="M211.696 220.9C223.42 220.509 239.971 204.672 246.044 196.408C237.084 205.368 226.331 210.446 222.15 210.147C220.66 210.041 219.462 210.745 220.059 211.641C220.589 212.436 222.845 213.333 224.238 213.134C223.044 213.931 219.101 215.703 212.889 216.42C205.123 217.316 202.734 212.238 202.435 210.147C202.196 208.475 203.632 208.057 204.526 208.654C204.825 209.052 205.527 210.147 207.216 210.147C211.099 210.147 212.291 202.382 206.617 201.486C196.843 199.943 196.364 208.256 197.36 212.835C197.944 215.523 202.736 221.198 211.696 220.9Z" stroke="#7B3B19" stroke-width="0.597349"/>
<path d="M231.708 224.484C236.247 225.2 240.966 210.446 242.758 202.979C239.652 209.431 232.902 218.659 226.033 222.094C223.643 223.289 221.851 222.692 220.955 222.094C219.761 221.795 219.462 223.03 220.059 223.587C223.643 226.933 229.119 223.687 231.409 221.796C230.692 223.229 230.811 224.185 231.708 224.484Z" stroke="#7B3B19" stroke-width="0.597349"/>
<path d="M248.433 235.833C243.177 230.815 244.252 211.939 246.044 200.291C245.148 202.083 239.473 224.185 235.889 228.665C232.305 234.34 225.734 231.353 225.734 232.846C225.734 236.132 232.206 235.236 234.694 233.444C237.084 238.222 240.27 230.656 241.564 226.275C242.997 232.727 244.105 240.821 246.044 241.209C249.628 241.926 250.524 237.625 248.433 235.833Z" stroke="#7B3B19" stroke-width="0.597349"/>
<path d="M247.836 218.51C247.119 214.687 247.239 207.758 248.433 205.667C248.433 210.924 249.628 219.406 252.316 222.99C254.108 225.38 252.674 226.753 251.719 226.275C250.524 225.678 248.732 223.289 247.836 218.51Z" stroke="#7B3B19" stroke-width="0.597349"/>
<path d="M223.046 180.877C224.148 183.448 221.652 184.561 220.358 184.76C220.836 189.539 224.141 191.53 225.734 191.928C224.241 189.837 226.472 188.836 227.526 189.539C233.798 193.72 241.365 193.322 244.849 191.928C242.699 191.928 240.369 191.729 239.473 191.629C239.174 191.53 237.382 191.373 237.382 190.136C237.382 189.24 238.179 188.842 238.876 188.643C238.278 185.656 233.201 183.864 233.5 183.266C234.993 181.176 241.265 182.669 243.057 186.253C242.161 184.461 242.758 181.474 244.252 182.669C245.447 183.625 248.732 184.859 250.225 185.357C260.082 186.851 264.562 182.669 263.666 182.669C262.77 182.669 262.172 181.176 263.666 180.877C264.86 180.638 271.133 180.777 274.119 180.877C289.65 181.594 295.723 191.53 296.819 196.408C296.819 197.901 295.91 199.653 293.533 199.992C291.442 200.291 290.347 199.096 290.248 198.798C286.365 189.539 278.201 188.045 274.119 188.643C261.694 190.076 258.389 199.793 258.29 204.472C257.334 214.747 264.064 216.32 267.548 215.822C268.146 217.315 268.146 220.063 263.367 219.107C258.588 218.152 256.697 213.93 256.199 212.238C256.199 212.835 255.937 214.03 254.705 214.03C253.511 214.03 252.615 213.433 252.017 210.744C251.42 208.056 252.316 204.174 252.615 202.979C252.854 202.023 252.515 201.983 252.316 202.083C252.216 203.178 251.373 205.341 249.329 204.174C247.239 202.979 247.239 197.005 251.42 194.019C254.463 191.845 264.562 187.747 269.639 185.656C258.588 187.448 259.484 187.747 251.42 191.629C243.356 195.512 239.542 198.126 234.694 198.499C230.811 198.798 230.115 196.408 230.214 194.915C223.643 194.915 218.708 192.301 216.774 188.045C215.28 184.76 216.512 180.877 217.968 179.981C219.263 179.185 222.15 178.786 223.046 180.877Z" stroke="#7B3B19" stroke-width="0.597349"/>
<path d="M281.586 212.537C286.365 212.537 289.65 208.056 290.248 205.07H296.819C296.819 212.835 288.156 219.687 282.781 220.003C277.703 220.302 272.925 218.809 270.535 214.329C268.317 210.17 269.141 204.871 269.938 202.68C270.734 200.689 273.522 196.707 278.301 196.707C283.08 196.707 285.071 200.291 285.469 202.083C285.768 203.676 285.63 206.801 283.08 207.758C280.69 208.654 278.301 207.459 277.106 206.563C276.15 205.846 275.712 206.264 275.613 206.563C274.896 210.386 278.898 212.537 281.586 212.537Z" stroke="#7B3B19" stroke-width="0.597349"/>
<path d="M390.304 221.118C378.58 220.728 362.029 204.89 355.956 196.627C364.916 205.587 375.669 210.665 379.85 210.366C381.34 210.26 382.538 210.963 381.941 211.859C381.411 212.655 379.155 213.552 377.762 213.353C378.956 214.149 382.899 215.921 389.111 216.638C396.877 217.534 399.266 212.457 399.565 210.366C399.804 208.694 398.368 208.275 397.474 208.873C397.175 209.271 396.473 210.366 394.784 210.366C390.901 210.366 389.709 202.601 395.383 201.705C405.157 200.161 405.636 208.474 404.64 213.054C404.056 215.742 399.264 221.417 390.304 221.118Z" fill="#7B3B19"/>
<path d="M370.292 224.702C365.753 225.419 361.034 210.665 359.242 203.198C362.348 209.649 369.098 218.878 375.967 222.313C378.357 223.508 380.149 222.91 381.045 222.313C382.239 222.014 382.538 223.249 381.941 223.806C378.357 227.151 372.881 223.906 370.591 222.014C371.308 223.448 371.189 224.404 370.292 224.702Z" fill="#7B3B19"/>
<path d="M353.567 236.052C358.823 231.034 357.748 212.158 355.956 200.51C356.852 202.302 362.527 224.404 366.111 228.884C369.695 234.558 376.266 231.572 376.266 233.065C376.266 236.351 369.794 235.454 367.306 233.662C364.916 238.441 361.73 230.875 360.436 226.494C359.003 232.946 357.895 241.04 355.956 241.428C352.372 242.145 351.476 237.844 353.567 236.052Z" fill="#7B3B19"/>
<path d="M354.164 218.729C354.881 214.906 354.761 207.976 353.567 205.886C353.567 211.142 352.372 219.625 349.684 223.209C347.892 225.598 349.326 226.972 350.281 226.494C351.476 225.897 353.268 223.508 354.164 218.729Z" fill="#7B3B19"/>
<path d="M378.954 181.096C377.852 183.666 380.348 184.779 381.642 184.979C381.164 189.757 377.859 191.749 376.266 192.147C377.759 190.056 375.528 189.054 374.474 189.757C368.202 193.939 360.635 193.541 357.151 192.147C359.301 192.147 361.631 191.948 362.527 191.848C362.826 191.749 364.618 191.592 364.618 190.355C364.618 189.459 363.821 189.06 363.124 188.861C363.722 185.875 368.799 184.083 368.5 183.485C367.007 181.394 360.735 182.888 358.943 186.472C359.839 184.68 359.242 181.693 357.748 182.888C356.553 183.844 353.268 185.078 351.775 185.576C341.918 187.069 337.438 182.888 338.334 182.888C339.23 182.888 339.828 181.394 338.334 181.096C337.14 180.857 330.867 180.996 327.881 181.096C312.35 181.813 306.277 191.749 305.181 196.627C305.181 198.12 306.09 199.871 308.467 200.211C310.558 200.51 311.653 199.315 311.752 199.016C315.635 189.757 323.799 188.264 327.881 188.861C340.306 190.295 343.611 200.012 343.71 204.691C344.666 214.965 337.936 216.538 334.452 216.041C333.854 217.534 333.854 220.282 338.633 219.326C343.412 218.37 345.303 214.149 345.801 212.457C345.801 213.054 346.063 214.249 347.295 214.249C348.489 214.249 349.385 213.651 349.983 210.963C350.58 208.275 349.684 204.392 349.385 203.198C349.146 202.242 349.485 202.202 349.684 202.302C349.784 203.397 350.627 205.56 352.671 204.392C354.761 203.198 354.761 197.224 350.58 194.237C347.537 192.064 337.438 187.965 332.361 185.875C343.412 187.667 342.516 187.965 350.58 191.848C358.644 195.731 362.458 198.345 367.306 198.718C371.189 199.016 371.885 196.627 371.786 195.133C378.357 195.133 383.292 192.52 385.226 188.264C386.72 184.979 385.488 181.096 384.032 180.2C382.737 179.403 379.85 179.005 378.954 181.096Z" fill="#7B3B19"/>
<path d="M320.414 212.755C315.635 212.755 312.35 208.275 311.752 205.288H305.181C305.181 213.054 313.844 219.906 319.219 220.222C324.297 220.521 329.075 219.027 331.465 214.547C333.683 210.389 332.859 205.089 332.062 202.899C331.266 200.908 328.478 196.926 323.699 196.926C318.92 196.926 316.929 200.51 316.531 202.302C316.232 203.895 316.37 207.02 318.92 207.976C321.31 208.873 323.699 207.678 324.894 206.782C325.85 206.065 326.288 206.483 326.387 206.782C327.104 210.605 323.102 212.755 320.414 212.755Z" fill="#7B3B19"/>
<path d="M390.304 221.118C378.58 220.728 362.029 204.89 355.956 196.627C364.916 205.587 375.669 210.665 379.85 210.366C381.34 210.26 382.538 210.963 381.941 211.859C381.411 212.655 379.155 213.552 377.762 213.353C378.956 214.149 382.899 215.921 389.111 216.638C396.877 217.534 399.266 212.457 399.565 210.366C399.804 208.694 398.368 208.275 397.474 208.873C397.175 209.271 396.473 210.366 394.784 210.366C390.901 210.366 389.709 202.601 395.383 201.705C405.157 200.161 405.636 208.474 404.64 213.054C404.056 215.742 399.264 221.417 390.304 221.118Z" stroke="#7B3B19" stroke-width="0.597349"/>
<path d="M370.292 224.702C365.753 225.419 361.034 210.665 359.242 203.198C362.348 209.649 369.098 218.878 375.967 222.313C378.357 223.508 380.149 222.91 381.045 222.313C382.239 222.014 382.538 223.249 381.941 223.806C378.357 227.151 372.881 223.906 370.591 222.014C371.308 223.448 371.189 224.404 370.292 224.702Z" stroke="#7B3B19" stroke-width="0.597349"/>
<path d="M353.567 236.052C358.823 231.034 357.748 212.158 355.956 200.51C356.852 202.302 362.527 224.404 366.111 228.884C369.695 234.558 376.266 231.572 376.266 233.065C376.266 236.351 369.794 235.454 367.306 233.662C364.916 238.441 361.73 230.875 360.436 226.494C359.003 232.946 357.895 241.04 355.956 241.428C352.372 242.145 351.476 237.844 353.567 236.052Z" stroke="#7B3B19" stroke-width="0.597349"/>
<path d="M354.164 218.729C354.881 214.906 354.761 207.976 353.567 205.886C353.567 211.142 352.372 219.625 349.684 223.209C347.892 225.598 349.326 226.972 350.281 226.494C351.476 225.897 353.268 223.508 354.164 218.729Z" stroke="#7B3B19" stroke-width="0.597349"/>
<path d="M378.954 181.096C377.852 183.666 380.348 184.779 381.642 184.979C381.164 189.757 377.859 191.749 376.266 192.147C377.759 190.056 375.528 189.054 374.474 189.757C368.202 193.939 360.635 193.541 357.151 192.147C359.301 192.147 361.631 191.948 362.527 191.848C362.826 191.749 364.618 191.592 364.618 190.355C364.618 189.459 363.821 189.06 363.124 188.861C363.722 185.875 368.799 184.083 368.5 183.485C367.007 181.394 360.735 182.888 358.943 186.472C359.839 184.68 359.242 181.693 357.748 182.888C356.553 183.844 353.268 185.078 351.775 185.576C341.918 187.069 337.438 182.888 338.334 182.888C339.23 182.888 339.828 181.394 338.334 181.096C337.14 180.857 330.867 180.996 327.881 181.096C312.35 181.813 306.277 191.749 305.181 196.627C305.181 198.12 306.09 199.871 308.467 200.211C310.558 200.51 311.653 199.315 311.752 199.016C315.635 189.757 323.799 188.264 327.881 188.861C340.306 190.295 343.611 200.012 343.71 204.691C344.666 214.965 337.936 216.538 334.452 216.041C333.854 217.534 333.854 220.282 338.633 219.326C343.412 218.37 345.303 214.149 345.801 212.457C345.801 213.054 346.063 214.249 347.295 214.249C348.489 214.249 349.385 213.651 349.983 210.963C350.58 208.275 349.684 204.392 349.385 203.198C349.146 202.242 349.485 202.202 349.684 202.302C349.784 203.397 350.627 205.56 352.671 204.392C354.761 203.198 354.761 197.224 350.58 194.237C347.537 192.064 337.438 187.965 332.361 185.875C343.412 187.667 342.516 187.965 350.58 191.848C358.644 195.731 362.458 198.345 367.306 198.718C371.189 199.016 371.885 196.627 371.786 195.133C378.357 195.133 383.292 192.52 385.226 188.264C386.72 184.979 385.488 181.096 384.032 180.2C382.737 179.403 379.85 179.005 378.954 181.096Z" stroke="#7B3B19" stroke-width="0.597349"/>
<path d="M320.414 212.755C315.635 212.755 312.35 208.275 311.752 205.288H305.181C305.181 213.054 313.844 219.906 319.219 220.222C324.297 220.521 329.075 219.027 331.465 214.547C333.683 210.389 332.859 205.089 332.062 202.899C331.266 200.908 328.478 196.926 323.699 196.926C318.92 196.926 316.929 200.51 316.531 202.302C316.232 203.895 316.37 207.02 318.92 207.976C321.31 208.873 323.699 207.678 324.894 206.782C325.85 206.065 326.288 206.483 326.387 206.782C327.104 210.605 323.102 212.755 320.414 212.755Z" stroke="#7B3B19" stroke-width="0.597349"/>
<path d="M303.09 212.238H298.61C297.715 214.03 294.131 218.809 290.547 221.198C286.066 224.782 280.989 225.877 277.704 225.977C273.821 225.977 270.336 224.981 268.146 223.886C269.938 229.86 276.808 229.561 281.885 228.366C281.885 229.561 278.502 230.543 280.392 231.353C282.482 232.249 285.668 230.556 287.261 229.561C288.456 230.158 286.664 231.95 286.962 231.95C290.547 232.846 294.131 227.172 294.728 226.574C295.206 226.096 296.321 222.592 296.818 220.899C297.216 220.302 298.014 220.003 298.61 220.899C299.448 222.157 297.118 228.068 295.325 231.054C293.831 233.544 292.637 235.833 293.831 237.326C295.107 238.921 297.017 236.829 297.416 236.132C298.013 237.924 299.506 238.82 301.298 238.82C302.732 238.82 303.887 237.028 304.285 236.132C304.882 236.729 306.758 238.067 307.869 237.326C308.765 236.729 308.646 234.34 306.973 231.95C304.882 228.964 302.195 222.99 302.494 220.899C302.62 220.012 303.987 220.003 304.286 220.899C304.385 221.198 305.779 224.483 307.272 226.574C309.99 230.379 313.246 232.249 314.739 231.95C315.934 231.711 313.545 230.158 314.44 229.561C318.024 231.95 321.694 231.894 322.505 231.353C324.297 230.158 319.518 229.163 319.219 228.366C328.18 231.353 333.258 225.678 333.556 223.289C332.759 224.185 326.686 226.275 320.414 225.081C313.372 223.74 305.878 216.419 303.09 212.238Z" fill="#7B3B19" stroke="#7B3B19" stroke-width="0.597349"/>
<circle cx="1.79205" cy="1.79205" r="1.79205" transform="matrix(1 0 0 -1 299.208 209.848)" fill="#7B3B19"/>
<circle cx="1.79205" cy="1.79205" r="1.79205" transform="matrix(1 0 0 -1 299.208 243.3)" fill="#7B3B19"/>
<circle cx="2.3894" cy="2.3894" r="2.3894" transform="matrix(1 0 0 -1 298.611 248.676)" fill="#7B3B19"/>
<circle cx="1.79205" cy="1.79205" r="1.79205" transform="matrix(1 0 0 -1 253.212 230.158)" fill="#7B3B19"/>
<circle cx="1.79205" cy="1.79205" r="1.79205" transform="matrix(1 0 0 -1 345.204 230.158)" fill="#7B3B19"/>
</svg>
